<svg viewBox="0 0 11 11" xmlns="http://www.w3.org/2000/svg">
<path fill="currentColor" d="M8.64041 1.01652H7.62389V0.508259C7.62389 0.37346 7.57034 0.244183 7.47502 0.148866C7.37971 0.0535486 7.25043 0 7.11563 0C6.98083 0 6.85155 0.0535486 6.75624 0.148866C6.66092 0.244183 6.60737 0.37346 6.60737 0.508259V1.01652H3.55781V0.508259C3.55781 0.37346 3.50427 0.244183 3.40895 0.148866C3.31363 0.0535486 3.18435 0 3.04956 0C2.91476 0 2.78548 0.0535486 2.69016 0.148866C2.59484 0.244183 2.5413 0.37346 2.5413 0.508259V1.01652H1.52478C1.12038 1.01652 0.732548 1.17716 0.446597 1.46312C0.160646 1.74907 0 2.1369 0 2.5413V8.64041C0 9.0448 0.160646 9.43264 0.446597 9.71859C0.732548 10.0045 1.12038 10.1652 1.52478 10.1652H8.64041C9.0448 10.1652 9.43264 10.0045 9.71859 9.71859C10.0045 9.43264 10.1652 9.0448 10.1652 8.64041V2.5413C10.1652 2.1369 10.0045 1.74907 9.71859 1.46312C9.43264 1.17716 9.0448 1.01652 8.64041 1.01652ZM9.14867 8.64041C9.14867 8.7752 9.09512 8.90448 8.9998 8.9998C8.90448 9.09512 8.7752 9.14867 8.64041 9.14867H1.52478C1.38998 9.14867 1.2607 9.09512 1.16538 8.9998C1.07007 8.90448 1.01652 8.7752 1.01652 8.64041V5.08259H9.14867V8.64041ZM9.14867 4.06607H1.01652V2.5413C1.01652 2.4065 1.07007 2.27722 1.16538 2.1819C1.2607 2.08659 1.38998 2.03304 1.52478 2.03304H2.5413V2.5413C2.5413 2.67609 2.59484 2.80537 2.69016 2.90069C2.78548 2.99601 2.91476 3.04956 3.04956 3.04956C3.18435 3.04956 3.31363 2.99601 3.40895 2.90069C3.50427 2.80537 3.55781 2.67609 3.55781 2.5413V2.03304H6.60737V2.5413C6.60737 2.67609 6.66092 2.80537 6.75624 2.90069C6.85155 2.99601 6.98083 3.04956 7.11563 3.04956C7.25043 3.04956 7.37971 2.99601 7.47502 2.90069C7.57034 2.80537 7.62389 2.67609 7.62389 2.5413V2.03304H8.64041C8.7752 2.03304 8.90448 2.08659 8.9998 2.1819C9.09512 2.27722 9.14867 2.4065 9.14867 2.5413V4.06607Z" />
</svg>
